# xmcd
#
# Track frame offsets:
#	150
#	17437
#	35767
#	54122
#	73552
#	95689
#	116437
#	137397
#	153601
#	174258
#
# Disc length: 2648 seconds
#
# Revision: 0
# Processed by: cddbd v1.5.2PL0 Copyright (c) Steve Scherf et al.
# Submitted via: audiograbber 1.83.01
#
DISCID=760a560a
DTITLE=Patrik Jansson Band - Patrik Jansson Band
DYEAR=1900
DGENRE=
TTITLE0=That's What I Say
TTITLE1=I'll Keep Moving On
TTITLE2=Just Move On
TTITLE3=Hard Life On The Road
TTITLE4=Separate Ways
TTITLE5=Please Tell Me
TTITLE6=Instrumental
TTITLE7=Come Along For The Ride
TTITLE8=Something Special
TTITLE9=A Wonder Of Nature
EXTD=
EXTT0=
EXTT1=
EXTT2=
EXTT3=
EXTT4=
EXTT5=
EXTT6=
EXTT7=
EXTT8=
EXTT9=
PLAYORDER=
